# xmcd
# 
# Track frame offsets:
#     150
#     13220
#     29812
#     47185
#     64540
#     87735
#     101752
#     115440
#     135132
#     150715
#     167795
#     183275
# 
# Disc length: 2665
# 
# Revision: 2
# Processed by: cddbd v1.5.2PL0 Copyright (c) Steve Scherf et al.
# Submitted via: BonkEnc v1.0.6
# 
DISCID=a40a670c
DTITLE=Green on Red - Scapegoats
DYEAR=1991
DGENRE=Rock
TTITLE0=A guy like me
TTITLE1=Litle things in life
TTITLE2=Two lovers (waiting' to die)
TTITLE3=Gold in the graveyard
TTITLE4=Hector's out
TTITLE5=Shed a tear (for the lonesome)
TTITLE6=Blowfly
TTITLE7=Sun goes down
TTITLE8=Where the rooster crows'
TTITLE9=Baby loves her gun
TTITLE10=Cherry Kind
TTITLE11=Waiting for love
EXTD=
EXTT0=
EXTT1=
EXTT2=
EXTT3=
EXTT4=
EXTT5=
EXTT6=
EXTT7=
EXTT8=
EXTT9=
EXTT10=
EXTT11=
PLAYORDER=
